<?xml version="1.0" encoding="UTF-8"?>
<svg id="Layer_1" xmlns="http://www.w3.org/2000/svg" version="1.1" viewBox="0 0 149 34.88">
  <!-- Generator: Adobe Illustrator 29.0.1, SVG Export Plug-In . SVG Version: 2.1.0 Build 192)  -->
  <defs>
    <style>
      .st0 {
        font-size: 16px;
        letter-spacing: .01em;
      }

      .st0, .st1, .st2, .st3, .st4, .st5 {
        stroke: #fff;
        stroke-miterlimit: 10;
        stroke-width: .5px;
      }

      .st0, .st1, .st2, .st3, .st6, .st5, .st7, .st8 {
        fill: #414042;
      }

      .st0, .st1, .st3, .st4, .st5, .st9 {
        font-family: AvalorsPersonalUse, 'Avalors Personal Use';
      }

      .st1 {
        font-size: 15.4px;
      }

      .st3 {
        font-size: 16px;
        letter-spacing: .01em;
      }

      .st4, .st6, .st5 {
        letter-spacing: .01em;
      }

      .st4, .st6, .st5, .st7 {
        font-size: 18.21px;
      }

      .st10 {
        fill: #fff;
      }

      .st6, .st11 {
        font-family: Corbel-Bold, Corbel;
        font-weight: 700;
      }

      .st12 {
        fill: #960b22;
      }

      .st13, .st11 {
        fill: #231f20;
      }

      .st14 {
        fill: #6d6e71;
      }

      .st11 {
        font-size: 22px;
        letter-spacing: 0em;
      }

      .st15 {
        fill: #c4c4c4;
      }

      .st7 {
        font-family: FranklinGothic-Medium, 'Franklin Gothic Medium';
        font-weight: 500;
        letter-spacing: 0em;
      }

      .st9 {
        font-size: 12px;
      }

      .st16 {
        fill: #1c75bc;
      }

      .st17 {
        fill: #aa0f22;
      }

      .st18 {
        fill: #d80720;
      }
    </style>
  </defs>
  <text class="st9" transform="translate(412.94 -182.2)"><tspan x="0" y="0">RENTMOSH </tspan></text>
  <g>
    <path d="M63.95,132.6v-4.25h17.03v4.25h-6.39v14.99h-4.25v-14.99h-6.39Z"/>
    <path class="st17" d="M82.48,147.59h-3.42l3.96-14.99,4.51,7.95,4.51-7.95,3.96,14.99h-3.42l-1.84-6.96-3.21,6.96-3.22-6.96-1.83,6.96Z"/>
    <path class="st17" d="M103.24,132.6c3.97,0,7.24,3.25,7.24,7.24v.51c0,3.99-3.27,7.24-7.24,7.24s-7.23-3.25-7.23-7.24v-.51c0-3.99,3.25-7.24,7.23-7.24ZM103.24,135.92c-2.16,0-3.91,1.77-3.91,3.93v.51c0,2.16,1.75,3.93,3.91,3.93s3.93-1.77,3.93-3.93v-.51c0-2.16-1.77-3.93-3.93-3.93Z"/>
    <path class="st17" d="M115.33,143.26c.1.58.61,1.02,1.23,1.02h4.8c.7,0,1.27-.57,1.27-1.26s-.57-1.27-1.27-1.27h-4.8c-.44,0-.85-.06-1.26-.18-.88-.26-1.66-.78-2.25-1.47-.39-.48-.7-1.03-.87-1.65-.12-.4-.19-.82-.19-1.27,0-2.07,1.41-3.84,3.31-4.39.41-.12.82-.18,1.26-.18h4.8c2.44,0,4.44,1.93,4.57,4.33h-3.33c-.1-.58-.63-1.02-1.24-1.02h-4.8c-.69,0-1.26.57-1.26,1.26s.57,1.27,1.26,1.27h4.8c1.41,0,2.68.64,3.52,1.65.39.48.69,1.05.87,1.65.12.4.18.84.18,1.27,0,2.52-2.05,4.57-4.57,4.57h-4.8c-.44,0-.85-.06-1.26-.18-1.83-.52-3.19-2.19-3.3-4.15h3.33Z"/>
    <g>
      <rect x="8.59" y="128.35" width="4.25" height="19.25"/>
      <path d="M25.77,134.74c0-3.5-2.87-6.39-6.39-6.39h-3.98v4.25h3.98c1.17,0,2.16.96,2.16,2.14s-.98,2.16-2.16,2.16h-6.06l2.91,4.25,4.41,6.45h5.14l-4.58-6.72c2.64-.77,4.58-3.23,4.58-6.14Z"/>
    </g>
    <g>
      <polygon class="st17" points="130.75 138.45 130.74 138.45 130.74 132.6 127.44 132.6 127.44 138.45 127.44 141.75 127.44 147.59 130.74 147.59 130.74 141.75 130.75 141.75 130.75 138.45"/>
      <polygon class="st17" points="137.29 132.6 137.29 138.45 132.85 138.45 132.85 141.75 137.29 141.75 137.29 147.59 140.59 147.59 140.59 141.75 140.59 138.45 140.59 132.6 137.29 132.6"/>
    </g>
    <polygon points="57.76 128.19 57.76 137.43 57.76 138.53 53.6 135.16 49.45 131.79 45.21 128.35 45.21 133.81 45.21 147.59 49.45 147.59 49.45 137.26 53.6 140.63 57.76 144 57.76 147.59 62.01 147.59 62.01 147.44 62.01 141.97 62.01 137.43 62.01 128.19 57.76 128.19"/>
    <g>
      <rect x="34.51" y="135.85" width="6.22" height="4.23"/>
      <polygon points="31.94 132.6 43.28 132.6 43.28 128.35 27.71 128.35 27.71 132.6 27.71 135.85 27.71 137.97 27.71 140.09 27.71 143.34 27.71 147.59 43.28 147.59 43.28 143.34 31.94 143.34 31.94 132.6"/>
    </g>
  </g>
  <g>
    <path class="st13" d="M924.7-6.95v-4.25h17.03v4.25h-6.39v14.99h-4.25V-6.95h-6.39Z"/>
    <path class="st13" d="M943.23,8.05h-3.42l3.96-14.99,4.51,7.95,4.51-7.95,3.96,14.99h-3.42l-1.84-6.96-3.21,6.96-3.22-6.96-1.83,6.96Z"/>
    <path class="st13" d="M963.99-6.95c3.97,0,7.24,3.25,7.24,7.24v.51c0,3.99-3.27,7.24-7.24,7.24s-7.23-3.25-7.23-7.24V.29c0-3.99,3.25-7.24,7.23-7.24ZM963.99-3.63c-2.16,0-3.91,1.77-3.91,3.93v.51c0,2.16,1.75,3.93,3.91,3.93s3.93-1.77,3.93-3.93V.29c0-2.16-1.77-3.93-3.93-3.93Z"/>
    <path class="st13" d="M976.08,3.71c.1.58.61,1.02,1.23,1.02h4.8c.7,0,1.27-.57,1.27-1.26s-.57-1.27-1.27-1.27h-4.8c-.44,0-.85-.06-1.26-.18-.88-.26-1.66-.78-2.25-1.47-.39-.48-.7-1.03-.87-1.65-.12-.4-.19-.82-.19-1.27,0-2.07,1.41-3.84,3.31-4.39.41-.12.82-.18,1.26-.18h4.8c2.44,0,4.44,1.93,4.57,4.33h-3.33c-.1-.58-.63-1.02-1.24-1.02h-4.8c-.69,0-1.26.57-1.26,1.26s.57,1.27,1.26,1.27h4.8c1.41,0,2.68.64,3.52,1.65.39.48.69,1.05.87,1.65.12.4.18.84.18,1.27,0,2.52-2.05,4.57-4.57,4.57h-4.8c-.44,0-.85-.06-1.26-.18-1.83-.52-3.19-2.19-3.3-4.15h3.33Z"/>
    <g>
      <rect class="st13" x="869.33" y="-11.2" width="4.25" height="19.25"/>
      <path class="st13" d="M886.52-4.81c0-3.5-2.87-6.39-6.39-6.39h-3.98v4.25h3.98c1.17,0,2.16.96,2.16,2.14s-.98,2.16-2.16,2.16h-6.06l2.91,4.25,4.41,6.45h5.14l-4.58-6.72c2.64-.77,4.58-3.23,4.58-6.14Z"/>
    </g>
    <g>
      <polygon class="st13" points="991.49 -1.1 991.49 -1.1 991.49 -6.95 988.19 -6.95 988.19 -1.1 988.19 2.2 988.19 8.05 991.49 8.05 991.49 2.2 991.49 2.2 991.49 -1.1"/>
      <polygon class="st13" points="998.04 -6.95 998.04 -1.1 993.6 -1.1 993.6 2.2 998.04 2.2 998.04 8.05 1001.34 8.05 1001.34 2.2 1001.34 -1.1 1001.34 -6.95 998.04 -6.95"/>
    </g>
    <polygon class="st13" points="918.51 -11.35 918.51 -2.11 918.51 -1.02 914.35 -4.39 910.19 -7.76 905.96 -11.2 905.96 -5.73 905.96 8.05 910.19 8.05 910.19 -2.29 914.35 1.08 918.51 4.45 918.51 8.05 922.76 8.05 922.76 7.89 922.76 2.43 922.76 -2.11 922.76 -11.35 918.51 -11.35"/>
    <g>
      <rect class="st13" x="895.25" y="-3.69" width="6.22" height="4.23"/>
      <polygon class="st13" points="892.69 -6.95 904.03 -6.95 904.03 -11.2 888.46 -11.2 888.46 -6.95 888.46 -3.69 888.46 -1.58 888.46 .54 888.46 3.79 888.46 8.05 904.03 8.05 904.03 3.79 892.69 3.79 892.69 -6.95"/>
    </g>
  </g>
  <g>
    <path d="M270.41-6.95v-4.25h17.03v4.25h-6.39v14.99h-4.25V-6.95h-6.39Z"/>
    <path d="M289.91,8.05h-4.39l5.08-19.25,5.79,10.21,5.79-10.21,5.08,19.25h-4.39l-2.37-8.93-4.12,8.93-4.14-8.93-2.35,8.93Z"/>
    <path d="M316.56-11.2c5.1,0,9.3,4.18,9.3,9.3v.65c0,5.12-4.2,9.3-9.3,9.3s-9.28-4.18-9.28-9.3v-.65c0-5.12,4.18-9.3,9.28-9.3ZM316.56-6.95c-2.77,0-5.02,2.27-5.02,5.04v.65c0,2.77,2.25,5.04,5.02,5.04s5.04-2.27,5.04-5.04v-.65c0-2.77-2.27-5.04-5.04-5.04Z"/>
    <path d="M332.08,2.48c.13.75.79,1.31,1.58,1.31h6.16c.9,0,1.64-.73,1.64-1.62s-.73-1.64-1.64-1.64h-6.16c-.56,0-1.1-.08-1.62-.23-1.14-.33-2.14-1-2.89-1.89-.5-.62-.9-1.33-1.12-2.12-.15-.52-.25-1.06-.25-1.64,0-2.66,1.81-4.93,4.25-5.64.52-.15,1.06-.23,1.62-.23h6.16c3.14,0,5.7,2.48,5.87,5.56h-4.27c-.13-.75-.81-1.31-1.6-1.31h-6.16c-.89,0-1.62.73-1.62,1.62s.73,1.64,1.62,1.64h6.16c1.81,0,3.44.83,4.52,2.12.5.62.89,1.35,1.12,2.12.15.52.23,1.08.23,1.64,0,3.23-2.64,5.87-5.87,5.87h-6.16c-.56,0-1.1-.08-1.62-.23-2.35-.67-4.1-2.81-4.23-5.33h4.27Z"/>
    <g>
      <rect x="215.05" y="-11.2" width="4.25" height="19.25"/>
      <path d="M232.23-4.81c0-3.5-2.87-6.39-6.39-6.39h-3.98v4.25h3.98c1.17,0,2.16.96,2.16,2.14s-.98,2.16-2.16,2.16h-6.06l2.91,4.25,4.41,6.45h5.14l-4.58-6.72c2.64-.77,4.58-3.23,4.58-6.14Z"/>
    </g>
    <g>
      <polygon points="351.87 -3.69 351.86 -3.69 351.86 -11.2 347.62 -11.2 347.62 -3.69 347.62 .54 347.62 8.05 351.86 8.05 351.86 .54 351.87 .54 351.87 -3.69"/>
      <polygon points="360.27 -11.2 360.27 -3.69 354.57 -3.69 354.57 .54 360.27 .54 360.27 8.05 364.5 8.05 364.5 .54 364.5 -3.69 364.5 -11.2 360.27 -11.2"/>
    </g>
    <polygon points="264.22 -11.35 264.22 -2.11 264.22 -1.02 260.06 -4.39 255.91 -7.76 251.67 -11.2 251.67 -5.73 251.67 8.05 255.91 8.05 255.91 -2.29 260.06 1.08 264.22 4.45 264.22 8.05 268.47 8.05 268.47 7.89 268.47 2.43 268.47 -2.11 268.47 -11.35 264.22 -11.35"/>
    <g>
      <rect class="st17" x="240.97" y="-3.69" width="6.22" height="4.23"/>
      <polygon points="238.4 -6.95 249.74 -6.95 249.74 -11.2 234.17 -11.2 234.17 -6.95 234.17 -3.69 234.17 -1.58 234.17 .54 234.17 3.79 234.17 8.05 249.74 8.05 249.74 3.79 238.4 3.79 238.4 -6.95"/>
    </g>
  </g>
  <g>
    <path d="M700.78-6.95v-4.25h17.03v4.25h-6.39v14.99h-4.25V-6.95h-6.39Z"/>
    <path d="M720.29,8.05h-4.39l5.08-19.25,5.79,10.21,5.79-10.21,5.08,19.25h-4.39l-2.37-8.93-4.12,8.93-4.14-8.93-2.35,8.93Z"/>
    <path d="M746.93-11.2c5.1,0,9.3,4.18,9.3,9.3v.65c0,5.12-4.2,9.3-9.3,9.3s-9.28-4.18-9.28-9.3v-.65c0-5.12,4.18-9.3,9.28-9.3ZM746.93-6.95c-2.77,0-5.02,2.27-5.02,5.04v.65c0,2.77,2.25,5.04,5.02,5.04s5.04-2.27,5.04-5.04v-.65c0-2.77-2.27-5.04-5.04-5.04Z"/>
    <path d="M762.46,2.48c.13.75.79,1.31,1.58,1.31h6.16c.9,0,1.64-.73,1.64-1.62s-.73-1.64-1.64-1.64h-6.16c-.56,0-1.1-.08-1.62-.23-1.14-.33-2.14-1-2.89-1.89-.5-.62-.9-1.33-1.12-2.12-.15-.52-.25-1.06-.25-1.64,0-2.66,1.81-4.93,4.25-5.64.52-.15,1.06-.23,1.62-.23h6.16c3.14,0,5.7,2.48,5.87,5.56h-4.27c-.13-.75-.81-1.31-1.6-1.31h-6.16c-.89,0-1.62.73-1.62,1.62s.73,1.64,1.62,1.64h6.16c1.81,0,3.44.83,4.52,2.12.5.62.89,1.35,1.12,2.12.15.52.23,1.08.23,1.64,0,3.23-2.64,5.87-5.87,5.87h-6.16c-.56,0-1.1-.08-1.62-.23-2.35-.67-4.1-2.81-4.23-5.33h4.27Z"/>
    <g>
      <rect x="645.42" y="-11.2" width="4.25" height="19.25"/>
      <path d="M662.61-4.81c0-3.5-2.87-6.39-6.39-6.39h-3.98v4.25h3.98c1.17,0,2.16.96,2.16,2.14s-.98,2.16-2.16,2.16h-6.06l2.91,4.25,4.41,6.45h5.14l-4.58-6.72c2.64-.77,4.58-3.23,4.58-6.14Z"/>
    </g>
    <g>
      <polygon points="782.24 -3.69 782.23 -3.69 782.23 -11.2 778 -11.2 778 -3.69 778 .54 778 8.05 782.23 8.05 782.23 .54 782.24 .54 782.24 -3.69"/>
      <polygon points="790.64 -11.2 790.64 -3.69 784.95 -3.69 784.95 .54 790.64 .54 790.64 8.05 794.88 8.05 794.88 .54 794.88 -3.69 794.88 -11.2 790.64 -11.2"/>
    </g>
    <polygon points="694.59 -11.35 694.59 -2.11 694.59 -1.02 690.44 -4.39 686.28 -7.76 682.04 -11.2 682.04 -5.73 682.04 8.05 686.28 8.05 686.28 -2.29 690.44 1.08 694.59 4.45 694.59 8.05 698.85 8.05 698.85 7.89 698.85 2.43 698.85 -2.11 698.85 -11.35 694.59 -11.35"/>
    <g>
      <rect x="671.34" y="-3.69" width="6.22" height="4.23"/>
      <polygon points="668.78 -6.95 680.11 -6.95 680.11 -11.2 664.54 -11.2 664.54 -6.95 664.54 -3.69 664.54 -1.58 664.54 .54 664.54 3.79 664.54 8.05 680.11 8.05 680.11 3.79 668.78 3.79 668.78 -6.95"/>
    </g>
  </g>
  <g>
    <g>
      <path d="M521.39,135.11c0-5.19-4.25-9.47-9.47-9.47h-9.57l-4.27,6.3h13.83c1.74,0,3.19,1.43,3.19,3.17s-1.45,3.19-3.19,3.19h-8.99l4.31,6.3,6.53,9.55h7.62l-6.79-9.95c3.91-1.14,6.79-4.79,6.79-9.1Z"/>
      <polygon class="st17" points="509.79 125.64 502.18 125.64 482.89 154.16 490.5 154.16 509.79 125.64"/>
      <polygon class="st17" points="505.99 149.54 502.2 143.89 495.24 154.16 502.86 154.16 505.99 149.54"/>
      <polygon class="st10" points="514.54 125.64 510.12 125.15 505.2 132.44 509.92 132.44 514.54 125.64"/>
    </g>
    <text class="st5" transform="translate(432.74 182.32)"><tspan x="0" y="0">RENTMOSH</tspan></text>
  </g>
  <g>
    <text class="st5" transform="translate(647.92 182.3)"><tspan x="0" y="0">RENTMOSH</tspan></text>
    <g>
      <path d="M739.4,135.09c0-5.19-4.25-9.47-9.47-9.47h-9.57l-4.27,6.3h13.83c1.74,0,3.19,1.43,3.19,3.17s-1.45,3.19-3.19,3.19h-8.99l4.31,6.3,6.53,9.55h7.62l-6.79-9.95c3.91-1.14,6.79-4.79,6.79-9.1Z"/>
      <polygon class="st17" points="719.35 138.35 711.74 138.35 700.9 154.14 708.51 154.14 719.35 138.35"/>
      <polygon class="st17" points="724 149.53 720.21 143.87 713.26 154.14 720.87 154.14 724 149.53"/>
    </g>
  </g>
  <polygon class="st10" points="225.19 101.41 221.99 101.41 218.89 106 222.07 106 225.19 101.41"/>
  <g>
    <g>
      <path class="st14" d="M309.02,135.09c0-5.19-4.25-9.47-9.47-9.47h-9.57l-4.27,6.3h13.83c1.74,0,3.19,1.43,3.19,3.17s-1.45,3.19-3.19,3.19h-8.99l4.31,6.3,6.53,9.55h7.62l-6.79-9.95c3.91-1.14,6.79-4.79,6.79-9.1Z"/>
      <polygon class="st17" points="288.98 138.35 281.36 138.35 270.52 154.14 278.14 154.14 288.98 138.35"/>
      <polygon class="st17" points="282.7 154.47 289.63 144.35 296.41 154.14 282.7 154.47"/>
      <path d="M270.52,154.14"/>
    </g>
    <text class="st4" transform="translate(217.55 182.3)"><tspan x="0" y="0">RENTMOSH</tspan></text>
  </g>
  <g>
    <text class="st5" transform="translate(863.11 182.3)"><tspan x="0" y="0">RENTMOSH</tspan></text>
    <g>
      <path d="M954.58,135.09c0-5.19-4.25-9.47-9.47-9.47h-17.26v6.3h17.26c1.74,0,3.19,1.43,3.19,3.17s-1.45,3.19-3.19,3.19h-8.99l4.31,6.3,6.53,9.55h7.62l-6.79-9.95c3.91-1.14,6.79-4.79,6.79-9.1Z"/>
      <polygon class="st17" points="934.54 138.35 926.92 138.35 916.08 154.14 923.7 154.14 934.54 138.35"/>
      <polygon class="st17" points="928.26 154.47 935.19 144.35 941.97 154.14 928.26 154.47"/>
    </g>
  </g>
  <g>
    <text class="st0" transform="translate(11.13 323.46)"><tspan x="0" y="0">RENTMOSH</tspan></text>
    <g>
      <rect class="st16" x="48.79" y="264.26" width="53.14" height="36"/>
      <g>
        <path class="st10" d="M96.37,278.13c0-4.47-3.66-8.16-8.15-8.16h-14.68v5.43h14.68c1.5,0,2.75,1.23,2.75,2.73s-1.25,2.75-2.75,2.75h-7.74l3.71,5.43,5.63,8.23h6.56l-5.85-8.57c3.37-.98,5.85-4.13,5.85-7.84Z"/>
        <polygon class="st10" points="79.11 280.94 74.22 280.94 64.89 294.54 69.77 294.54 79.11 280.94"/>
        <polygon class="st10" points="77.79 269.97 71.18 269.97 54.34 294.54 60.94 294.54 77.79 269.97"/>
        <polygon class="st10" points="79.69 291.65 81.7 294.53 85.63 294.52 79.67 285.82 73.7 294.54 77.71 294.53 79.69 291.65"/>
      </g>
    </g>
    <rect class="st17" x="102.35" y="291.87" width=".3" height="0"/>
  </g>
  <g>
    <g>
      <polygon class="st12" points="278.15 410.71 278.15 437.13 283.02 437.13 283.02 415.66 278.15 410.71"/>
      <polygon class="st12" points="286.34 427.03 286.34 437.13 296.32 437.13 286.34 427.03"/>
      <path class="st8" d="M285.68,421.37l6.07-6.15h-6.06l-4.43-4.47h16.25v4.47l-5.74,6.25,9.62,9.65v6.14l-15.72-15.89Z"/>
    </g>
    <text class="st1" transform="translate(229.25 456.3)"><tspan x="0" y="0">RENTMOSH</tspan></text>
  </g>
  <rect class="st17" x="332.23" y="429.22" width=".3" height="0"/>
  <g>
    <path class="st12" d="M654.47,299.08l5.7-6.71h-5.7l-4.38-4.47h15.85v4.47l-5.37,6.71,9.25,9.43v6.23l-15.35-15.66Z"/>
    <text class="st1" transform="translate(669.17 305.69)"><tspan x="0" y="0">RENTMOSH</tspan></text>
    <rect class="st17" x="759.82" y="278.08" width=".3" height="0"/>
  </g>
  <text class="st3" transform="translate(441.51 323.28)"><tspan x="0" y="0">RENTMOSH</tspan></text>
  <rect class="st17" x="532.72" y="291.11" width=".3" height="0"/>
  <rect class="st16" x="483.57" y="264.44" width="42.79" height="36.49"/>
  <polygon class="st10" points="502.4 278.84 487.46 296.44 493.23 296.44 505.45 282.04 502.4 278.84"/>
  <polygon class="st10" points="508.65 285.23 499.17 296.44 504.93 296.44 511.73 288.41 508.65 285.23"/>
  <path class="st10" d="M506.86,280.3l5.8-6.82h-5.8l-4.46-4.55h16.12v4.55l-5.46,6.82,9.41,9.59v6.33l-15.61-15.92Z"/>
  <g>
    <path class="st2" d="M227.12,307.28h8.98c2.93,0,5.31,2.4,5.31,5.31,0,2.42-1.62,4.47-3.81,5.11l3.81,5.59h-4.27l-3.67-5.36-2.42-3.54h5.04c.98,0,1.79-.82,1.79-1.79s-.82-1.78-1.79-1.78h-5.44v12.47h-3.54v-16.01Z"/>
    <path class="st2" d="M246.69,319.75h9.43v3.54h-12.95v-16.01h12.95v3.54h-9.43v2.71h8.32v3.52h-8.32v2.71Z"/>
    <path class="st2" d="M257.87,323.28v-16.01l3.52,2.87,3.46,2.8,3.46,2.8v-8.6h3.54v16.01l-3.54-2.87-3.46-2.8-3.46-2.8v8.6h-3.52Z"/>
    <path class="st2" d="M273.6,310.81v-3.54h14.17v3.54h-5.31v12.47h-3.54v-12.47h-5.31Z"/>
    <path class="st2" d="M289.97,323.28h-3.65l1.6-6.07.51-1.94.9-3.41,1.22-4.59.91,1.39,1.68,2.59,2.22,3.39,2.21-3.39,1.7-2.59.91-1.39,1.2,4.59.91,3.41.51,1.94,1.6,6.07h-3.65l-1.49-5.6-.48-1.82-3.43,5.25-3.44-5.25-.46,1.82-1.49,5.6Z"/>
    <path class="st2" d="M312.27,307.28c4.24,0,7.73,3.47,7.73,7.73v.54c0,4.26-3.49,7.73-7.73,7.73s-7.71-3.47-7.71-7.73v-.54c0-4.26,3.47-7.73,7.71-7.73ZM312.27,310.81c-2.3,0-4.18,1.89-4.18,4.19v.54c0,2.3,1.87,4.19,4.18,4.19s4.19-1.89,4.19-4.19v-.54c0-2.3-1.89-4.19-4.19-4.19Z"/>
    <path class="st2" d="M325.33,318.66c.11.62.66,1.09,1.31,1.09h5.12c.75,0,1.36-.61,1.36-1.34s-.61-1.36-1.36-1.36h-5.12c-.46,0-.91-.06-1.34-.19-.94-.27-1.78-.83-2.4-1.57-.42-.51-.75-1.1-.93-1.76-.13-.43-.21-.88-.21-1.36,0-2.21,1.5-4.1,3.54-4.69.43-.13.88-.19,1.34-.19h5.12c2.61,0,4.74,2.06,4.88,4.63h-3.55c-.11-.62-.67-1.09-1.33-1.09h-5.12c-.74,0-1.34.61-1.34,1.34s.61,1.36,1.34,1.36h5.12c1.5,0,2.87.69,3.76,1.76.42.51.74,1.12.93,1.76.13.43.19.9.19,1.36,0,2.69-2.19,4.88-4.88,4.88h-5.12c-.46,0-.91-.06-1.34-.19-1.95-.56-3.41-2.34-3.52-4.43h3.55Z"/>
    <path class="st2" d="M341.92,317.04v6.24h-3.52v-16.01h3.52v6.24h6.99v-6.24h3.52v16.01h-3.52v-6.24h-6.99Z"/>
  </g>
  <rect class="st17" x="317.54" y="291.11" width=".3" height="0"/>
  <g>
    <rect class="st13" x="268.38" y="264.44" width="42.79" height="36.49"/>
    <polygon class="st18" points="287.21 278.84 272.27 296.44 278.04 296.44 290.26 282.04 287.21 278.84"/>
    <polygon class="st18" points="293.47 285.23 283.98 296.44 289.75 296.44 296.54 288.41 293.47 285.23"/>
    <path class="st15" d="M291.67,280.3l5.8-6.82h-5.8l-4.46-4.55h16.12v4.55l-5.46,6.82,9.41,9.59v6.33l-15.61-15.92Z"/>
  </g>
  <text class="st7" transform="translate(622.84 -194.2)"><tspan x="0" y="0">RENTMOSH</tspan></text>
  <text class="st6" transform="translate(626.45 -213.95)"><tspan x="0" y="0">RENTMOSH</tspan></text>
  <path class="st2" d="M331.54,381.82"/>
  <g>
    <g>
      <polygon class="st12" points="62.96 410.18 62.96 436.6 67.83 436.6 67.83 415.13 62.96 410.18"/>
      <polygon class="st12" points="70.49 424.16 70.49 436.6 75.26 436.6 75.26 428.99 70.49 424.16"/>
      <polygon class="st12" points="77.51 431.27 77.51 436.6 82.28 436.6 82.28 436.09 77.51 431.27"/>
      <path class="st8" d="M70.49,420.84l6.07-6.15h-6.06l-4.43-4.47h16.25v4.47l-5.74,6.25,9.62,9.65v6.14l-15.72-15.89Z"/>
    </g>
    <text class="st1" transform="translate(14.07 456.83)"><tspan x="0" y="0">RENTMOSH</tspan></text>
  </g>
  <rect class="st17" x="117.04" y="429.22" width=".3" height="0"/>
  <path class="st2" d="M116.35,381.82"/>
  <g>
    <g>
      <polygon class="st12" points="923.71 270.63 923.71 297.05 928.58 297.05 928.58 275.58 923.71 270.63"/>
      <polygon class="st8" points="931.24 284.61 931.24 297.05 936.01 297.05 936.01 289.44 931.24 284.61"/>
      <polygon class="st8" points="938.26 291.72 938.26 297.05 943.03 297.05 943.03 296.54 938.26 291.72"/>
      <path class="st12" d="M931.24,281.29l6.07-6.15h-6.06l-4.43-4.47h16.25v4.47l-5.74,6.25,9.62,9.65v6.14l-15.72-15.89Z"/>
    </g>
    <text class="st1" transform="translate(874.81 317.28)"><tspan x="0" y="0">RENTMOSH</tspan></text>
    <rect class="st17" x="977.79" y="289.67" width=".3" height="0"/>
  </g>
  <path class="st2" d="M977.1,242.27"/>
  <g>
    <g>
      <polygon class="st8" points="1.65 2.24 1.65 28.66 6.52 28.66 6.52 7.19 1.65 2.24"/>
      <polygon class="st8" points="9.18 16.22 9.18 28.66 13.95 28.66 13.95 21.05 9.18 16.22"/>
      <polygon class="st8" points="16.2 23.33 16.2 28.66 20.97 28.66 20.97 28.15 16.2 23.33"/>
      <path class="st12" d="M9.18,12.9l6.07-6.15h-6.06L4.76,2.27h16.25v4.47l-5.74,6.25,9.62,9.65v6.14l-15.72-15.89Z"/>
    </g>
    <text class="st1" transform="translate(26.31 28.79)"><tspan x="0" y="0">RENTMOSH</tspan></text>
    <rect class="st17" x="116.96" y="1.18" width=".3" height="0"/>
  </g>
  <path class="st2" d="M116.35-42.46"/>
  <text class="st11" transform="translate(445.57 39.02)"><tspan x="0" y="0">RENTMOSH</tspan></text>
  <rect class="st17" x="532.72" y="16.18" width=".3" height="0"/>
  <polygon class="st12" points="502.43 1.24 487.67 18.63 493.37 18.63 505.44 4.41 502.43 1.24"/>
  <polygon class="st12" points="508.61 7.56 499.24 18.63 504.93 18.63 511.65 10.7 508.61 7.56"/>
  <path class="st14" d="M506.83,2.68l5.73-6.74h-5.73l-4.4-4.49h15.92v4.49l-5.39,6.74,9.29,9.47v6.26l-15.42-15.73Z"/>
</svg>